{"title":"Neverwas-AC3-XviD-DVDRip 2005","uid":6598126,"size":1569334895,"categoryP":"video","categoryS":"movies","magnet":"?xt=urn:btih:9de8e382904f5d68195ee887f0a1e7848ef18917&amp;dn=Neverwas-AC3-XviD-DVDRip+2005&amp;tr=udp%3A%2F%2Ftracker.openbittorrent.com%3A80&amp;tr=udp%3A%2F%2Fopen.demonii.com%3A1337&amp;tr=udp%3A%2F%2Ftracker.coppersurfer.tk%3A6969&amp;tr=udp%3A%2F%2Fexodus.desync.com%3A6969","seeders":2,"leechers":0,"uploader":"FatFreddy31","files":-1,"time":1313099559,"description":"[img]http://img269.imageshack.us/img269/6070/neverwas.jpg[/img]\n &lt;a href=&quot;\nhttp://www.imdb.com/title/tt0418004/&quot; rel=&quot;nofollow&quot; target=&quot;_NEW&quot;&gt;\nhttp://www.imdb.com/title/tt0418004/&lt;/a&gt;\n &lt;a href=&quot;\nhttp://www.moviemeter.nl/film/31920&quot; rel=&quot;nofollow&quot; target=&quot;_NEW&quot;&gt;\nhttp://www.moviemeter.nl/film/31920&lt;/a&gt;\n\nSubs: Dutch.\n\nSource: Original Pal\n\nGeneral\nComplete name                    : Neverwas-AC3-XviD-DVDRip 2005.avi\nFormat                           : AVI\nFormat/Info                      : Audio Video Interleave\nFile size                        : 1.46 GiB\nDuration                         : 1h 38mn\nOverall bit rate                 : 2 129 Kbps\nWriting application              : VirtualDubMod 1.5.4.1 (build 2178/release)\nWriting library                  : VirtualDubMod build 2178/release\n\nVideo\nID                               : 0\nFormat                           : MPEG-4 Visual\nFormat profile                   : Simple@L3\nFormat settings, BVOP            : No\nFormat settings, QPel            : No\nFormat settings, GMC             : No warppoints\nFormat settings, Matrix          : Default (H.263)\nCodec ID                         : XVID\nCodec ID/Hint                    : XviD\nDuration                         : 1h 38mn\nBit rate                         : 1 671 Kbps\nWidth                            : 720 pixels\nHeight                           : 304 pixels\nDisplay aspect ratio             : 2.35:1\nFrame rate                       : 25.000 fps\nColor space                      : YUV\nChroma subsampling               : 4:2:0\nBit depth                        : 8 bits\nScan type                        : Progressive\nCompression mode                 : Lossy\nBits/(Pixel*Frame)               : 0.305\nStream size                      : 1.15 GiB (78%)\nWriting library                  : XviD 1.1.2 (UTC 2006-11-01)\n\nAudio\nID                               : 1\nFormat                           : AC-3\nFormat/Info                      : Audio Coding 3\nMode extension                   : CM (complete main)\nCodec ID                         : 2000\nDuration                         : 1h 38mn\nBit rate mode                    : Constant\nBit rate                         : 448 Kbps\nChannel(s)                       : 6 channels\nChannel positions                : Front: L C R, Side: L R, LFE\nSampling rate                    : 48.0 KHz\nBit depth                        : 16 bits\nCompression mode                 : Lossy\nStream size                      : 315 MiB (21%)\nAlignment                        : Split accross interleaves\nInterleave, duration             : 40 ms (1.00 video frame)\nInterleave, preload duration     : 500 ms\n\n[img]http://img33.imageshack.us/img33/9875/neverwasac3xviddvdrip20.jpg[/img]","torrent":{"xt":"urn:btih:9de8e382904f5d68195ee887f0a1e7848ef18917","amp;dn":"Neverwas-AC3-XviD-DVDRip+2005","amp;tr":["udp%3A%2F%2Ftracker.openbittorrent.com%3A80","udp%3A%2F%2Fopen.demonii.com%3A1337","udp%3A%2F%2Ftracker.coppersurfer.tk%3A6969","udp%3A%2F%2Fexodus.desync.com%3A6969"],"infoHash":"9de8e382904f5d68195ee887f0a1e7848ef18917","infoHashBuffer":{"type":"Buffer","data":[157,232,227,130,144,79,93,104,25,94,232,135,240,161,231,132,142,241,137,23]},"announce":[],"urlList":[]}}